<svg width="56" height="56" viewBox="0 0 56 56" fill="none" xmlns="http://www.w3.org/2000/svg">
<g clip-path="url(#clip0_883_138)">
<path fill-rule="evenodd" clip-rule="evenodd" d="M28.5095 50.1137C23.9887 50.1137 19.6108 48.8089 15.8451 46.3382L15.806 46.3128L7.0657 49.0906L9.9061 40.7102L9.87675 40.6692C7.00897 36.7509 5.49292 32.1206 5.49292 27.279C5.49292 14.687 15.8177 4.44238 28.5095 4.44238C41.2013 4.44238 51.5242 14.687 51.5242 27.279C51.5242 39.871 41.1994 50.1137 28.5095 50.1137Z" fill="#4ae572"/>
<path d="M28.5095 4.54035C41.1446 4.54035 51.4264 14.7419 51.4264 27.2792C51.4264 39.8164 41.1466 50.016 28.5095 50.016C24.0083 50.016 19.648 48.7151 15.8999 46.2562L15.8217 46.2053L15.7336 46.2327L7.22222 48.9382L9.98437 40.7886L10.0176 40.6928L9.95699 40.6106C7.10094 36.71 5.59271 32.0992 5.59271 27.2792C5.59271 14.7399 15.8745 4.54035 28.5115 4.54035M28.5115 4.34473C15.763 4.34473 5.39709 14.6324 5.39709 27.2792C5.39709 32.2948 7.03052 36.9428 9.79853 40.726L6.91315 49.2414L15.7943 46.4205C19.4426 48.8149 23.8147 50.2116 28.5115 50.2116C41.2542 50.2116 51.624 39.924 51.624 27.2792C51.624 14.6343 41.2522 4.34473 28.5095 4.34473H28.5115Z" fill="#4ae572"/>
<path fill-rule="evenodd" clip-rule="evenodd" d="M42.3907 33.562C42.2205 33.2823 41.7706 33.116 41.0996 32.7815C40.4248 32.447 37.111 30.8292 36.4928 30.6062C35.8766 30.3832 35.4228 30.2717 34.9768 30.9407C34.5268 31.6098 33.2357 33.116 32.8406 33.562C32.4494 34.01 32.0562 34.0628 31.3832 33.7283C30.7083 33.3938 28.535 32.6857 25.9626 30.4106C23.9614 28.6364 22.6077 26.4493 22.2126 25.7803C21.8213 25.1113 22.1735 24.7513 22.508 24.4168C22.8112 24.1156 23.1829 23.6363 23.5193 23.247C23.8577 22.8558 23.9692 22.5741 24.1942 22.1281C24.4192 21.6821 24.3077 21.2928 24.1375 20.9583C23.9712 20.6238 22.6214 17.3335 22.06 15.9935C21.5025 14.6574 20.9391 14.7063 20.5439 14.7063C20.1488 14.7063 19.425 14.8237 19.425 14.8237C19.425 14.8237 18.0733 14.9899 17.4571 15.6589C16.8409 16.328 15.0999 17.9457 15.0999 21.2341C15.0999 24.5225 17.5118 27.7052 17.8503 28.1493C18.1887 28.5972 22.5099 35.5691 29.3625 38.2452C36.2131 40.9213 36.2131 40.0292 37.4494 39.9158C38.6837 39.8062 41.4361 38.3 41.9975 36.737C42.559 35.1759 42.559 33.8359 42.3927 33.5581L42.3907 33.562Z" fill="white"/>
<path fill-rule="evenodd" clip-rule="evenodd" d="M28.5096 0C13.3256 0 1.01722 12.2125 1.01722 27.2791C1.01722 32.4318 2.45698 37.2538 4.96091 41.3637L0 56L15.2212 51.1623C19.159 53.3259 23.6895 54.5563 28.5096 54.5563C43.6916 54.5563 56 42.3418 56 27.2791C56 12.2164 43.6916 0 28.5096 0ZM28.5096 50.2116C23.8128 50.2116 19.4407 48.8129 15.7924 46.4205L6.91124 49.2413L9.79663 40.726C7.02861 36.9427 5.39519 32.2948 5.39519 27.2791C5.39519 14.6304 15.7611 4.34471 28.5096 4.34471C41.2581 4.34471 51.622 14.6323 51.622 27.2791C51.622 39.9259 41.2522 50.2116 28.5096 50.2116Z" fill="white"/>
</g>
<defs>
<clipPath id="clip0_883_138">
<rect width="56" height="56" fill="white"/>
</clipPath>
</defs>
</svg>
