<?xml version="1.0" encoding="utf-8"?>
<!-- Generator: Adobe Illustrator 27.0.0, SVG Export Plug-In . SVG Version: 6.00 Build 0)  -->
<svg version="1.1" id="Layer_1" xmlns="http://www.w3.org/2000/svg" xmlns:xlink="http://www.w3.org/1999/xlink" x="0px" y="0px"
	 viewBox="0 0 40 40" style="enable-background:new 0 0 40 40;" xml:space="preserve">
<style type="text/css">
	.st0{fill:#FFFFFF;}
</style>
<g>
	<g>
		<path class="st0" d="M28.8,13.6c-1.3,0-2.4-1.1-2.4-2.4s1.1-2.4,2.4-2.4c1.3,0,2.4,1.1,2.4,2.4S30.1,13.6,28.8,13.6z M28.8,9.7
			c-0.8,0-1.4,0.6-1.4,1.4s0.6,1.4,1.4,1.4s1.4-0.6,1.4-1.4S29.5,9.7,28.8,9.7z"/>
	</g>
	<g>
		<g>
			<path class="st0" d="M27.1,34.9H12.9c-4.3,0-7.8-3.5-7.8-7.8V12.9c0-4.3,3.5-7.8,7.8-7.8h14.2c4.3,0,7.8,3.5,7.8,7.8v14.2
				C34.9,31.4,31.4,34.9,27.1,34.9z M12.9,6.1c-3.8,0-6.8,3.1-6.8,6.8v14.2c0,3.8,3.1,6.8,6.8,6.8h14.2c3.8,0,6.8-3.1,6.8-6.8V12.9
				c0-3.8-3.1-6.8-6.8-6.8H12.9z"/>
		</g>
	</g>
	<g>
		<path class="st0" d="M20.2,25.4c-3.1,0-5.7-2.5-5.7-5.7c0-3.1,2.5-5.7,5.7-5.7c3.1,0,5.7,2.5,5.7,5.7
			C25.9,22.9,23.3,25.4,20.2,25.4z M20.2,15.1c-2.6,0-4.7,2.1-4.7,4.7c0,2.6,2.1,4.7,4.7,4.7c2.6,0,4.7-2.1,4.7-4.7
			C24.9,17.2,22.8,15.1,20.2,15.1z"/>
	</g>
	<g>
		<path class="st0" d="M20.2,28.3c-4.7,0-8.6-3.8-8.6-8.6c0-4.7,3.8-8.6,8.6-8.6c4.7,0,8.6,3.8,8.6,8.6
			C28.8,24.5,24.9,28.3,20.2,28.3z M20.2,12.2c-4.2,0-7.6,3.4-7.6,7.6c0,4.2,3.4,7.6,7.6,7.6c4.2,0,7.6-3.4,7.6-7.6
			C27.8,15.6,24.4,12.2,20.2,12.2z"/>
	</g>
</g>
</svg>
