<?xml version="1.0" encoding="utf-8"?>
<!-- Generator: Adobe Illustrator 27.0.0, SVG Export Plug-In . SVG Version: 6.00 Build 0)  -->
<svg version="1.1" id="Layer_1" xmlns="http://www.w3.org/2000/svg" xmlns:xlink="http://www.w3.org/1999/xlink" x="0px" y="0px"
	 viewBox="0 0 40 40" style="enable-background:new 0 0 40 40;" xml:space="preserve">
<style type="text/css">
	.st0{fill:#FFFFFF;}
</style>
<g>
	<g>
		<path class="st0" d="M29.6,32.2H10.4c-4.4,0-8-3.6-8-8v-8.5c0-4.4,3.6-8,8-8h19.3c4.4,0,8,3.6,8,8v8.5
			C37.6,28.6,34,32.2,29.6,32.2z M10.4,8.8c-3.8,0-7,3.1-7,7v8.5c0,3.8,3.1,7,7,7h19.3c3.8,0,7-3.1,7-7v-8.5c0-3.8-3.1-7-7-7H10.4z
			 M17.6,25c-0.4,0-0.9-0.1-1.2-0.3c-0.4-0.2-0.5-0.5-0.5-0.7v-8.7c0-0.2,0.1-0.5,0.5-0.7c0.4-0.2,1.3-0.4,1.8-0.2l8.2,4.5
			c0.4,0.2,0.8,0.7,0.8,1.1c0,0.3-0.1,0.5-0.4,0.6l0,0l-8.6,4.2C18,25,17.8,25,17.6,25z M16.9,23.9c0.2,0.1,0.6,0.2,0.8,0.1l8.4-4.1
			c0,0-0.1-0.1-0.2-0.1l-8.2-4.5c-0.1,0-0.6,0-0.8,0.1V23.9z"/>
	</g>
</g>
</svg>
