<?xml version="1.0" encoding="utf-8"?>
<!-- Generator: Adobe Illustrator 27.0.0, SVG Export Plug-In . SVG Version: 6.00 Build 0)  -->
<svg version="1.1" id="Layer_1" xmlns="http://www.w3.org/2000/svg" xmlns:xlink="http://www.w3.org/1999/xlink" x="0px" y="0px"
	 viewBox="0 0 40 40" style="enable-background:new 0 0 40 40;" xml:space="preserve">
<style type="text/css">
	.st0{fill:#FFFFFF;}
</style>
<g>
	<g>
		<g>
			<g id="location_00000177484367379457421070000002769444999050081447_">
				<g id="location_00000181809392889139825370000016216412950421408657_">
					<path class="st0" d="M20,38.1c-0.1,0-0.2,0-0.3-0.1c-0.5-0.5-13-12-13-22.6c0-7.4,6-13.4,13.4-13.4s13.4,6,13.4,13.4
						c0,9.5-12.5,22.1-13,22.6C20.3,38,20.1,38.1,20,38.1z M20,2.9c-6.8,0-12.4,5.6-12.4,12.4c0,9.2,10.3,19.6,12.4,21.5
						c2-2.1,12.4-13.3,12.4-21.5C32.4,8.5,26.8,2.9,20,2.9z M20,20.5c-2.9,0-5.2-2.3-5.2-5.2c0-2.9,2.3-5.2,5.2-5.2s5.2,2.3,5.2,5.2
						C25.2,18.2,22.9,20.5,20,20.5z M20,11.1c-2.3,0-4.2,1.9-4.2,4.2s1.9,4.2,4.2,4.2s4.2-1.9,4.2-4.2S22.3,11.1,20,11.1z"/>
				</g>
			</g>
		</g>
	</g>
</g>
</svg>
